<svg width="60" height="60" viewBox="0 0 60 60" fill="none" xmlns="http://www.w3.org/2000/svg">
<path d="M30.7736 34.0808C31.0307 33.307 31.0446 32.4695 30.8133 31.6871L34.4483 24.2078C34.5373 24.0305 34.5911 23.8367 34.6067 23.6378C34.6223 23.4389 34.5993 23.2388 34.5392 23.0491C34.479 22.8594 34.3828 22.6838 34.2561 22.5327C34.1295 22.3815 33.9749 22.2577 33.8014 22.1685C33.6279 22.0793 33.4389 22.0264 33.2454 22.0129C33.0518 21.9994 32.8576 22.0256 32.674 22.09C32.4904 22.1543 32.321 22.2555 32.1757 22.3878C32.0304 22.52 31.9121 22.6806 31.8276 22.8602L28.7252 29.2392C26.8723 28.2897 24.056 26.8454 21.7877 25.6929C19.6772 24.613 18.1682 23.6449 15.6018 23.6449H14.3074C15.7745 23.6451 17.1969 23.125 18.3347 22.1721C19.4725 21.2192 20.2561 19.8919 20.5534 18.4138C20.8508 16.9358 20.6437 15.3975 19.967 14.0583C19.2904 12.7191 18.1856 11.6608 16.8389 11.0619C15.4922 10.4631 13.9859 10.3602 12.5741 10.7707C11.1623 11.1812 9.93119 12.0799 9.08842 13.3154C8.24565 14.5509 7.84273 16.0475 7.94759 17.553C8.05245 19.0585 8.65867 20.4808 9.66405 21.58C10.2599 22.2329 10.9797 22.7531 11.7788 23.1084C12.5779 23.4637 13.4394 23.6466 14.31 23.6457C11.8433 23.6514 9.4785 24.6589 7.73019 26.4491C6.86197 27.3355 6.17355 28.3905 5.70487 29.5528C5.2362 30.7151 4.99662 31.9616 5.00004 33.22V38.0625C5.00106 39.0544 5.30434 40.021 5.86719 40.8264C6.43005 41.6318 7.22416 42.2353 8.13782 42.5522V50.9747C8.13782 51.1727 8.17571 51.3686 8.24934 51.5515C8.32296 51.7344 8.43088 51.9005 8.56692 52.0405C8.70296 52.1804 8.86447 52.2915 9.04222 52.3672C9.21996 52.4429 9.41047 52.4819 9.60286 52.4819H19.0171C19.2095 52.4819 19.4 52.4429 19.5777 52.3672C19.7555 52.2915 19.917 52.1804 20.053 52.0405C20.1891 51.9005 20.297 51.7344 20.3706 51.5515C20.4442 51.3686 20.4821 51.1727 20.4821 50.9747V34.041L25.172 36.4534C25.684 36.7175 26.245 36.8658 26.8173 36.8882C27.3897 36.9107 27.9601 36.8069 28.4902 36.5838C29.0203 36.3606 29.4978 36.0233 29.8906 35.5945C30.2834 35.1657 30.5825 34.6553 30.7676 34.0977L30.7736 34.0808Z" fill="white"/>
<path d="M50.3972 7.5H28.4301C27.8256 7.49988 27.227 7.62229 26.6685 7.86021C26.1101 8.09814 25.6026 8.44693 25.1752 8.88666C24.7477 9.3264 24.4087 9.84845 24.1774 10.423C23.9461 10.9976 23.8272 11.6134 23.8273 12.2353V23.3699L27.4141 25.2042L29.2057 21.516C29.4581 20.9753 29.8126 20.4917 30.2485 20.0933C30.6844 19.6948 31.193 19.3897 31.7446 19.1954C32.2963 19.0012 32.88 18.9219 33.4618 18.962C34.0435 19.0022 34.6117 19.161 35.1332 19.4292C35.6547 19.6975 36.1192 20.0698 36.4994 20.5245C36.8797 20.9793 37.1682 21.5073 37.3482 22.0778C37.5282 22.6484 37.596 23.2501 37.5477 23.8479C37.4994 24.4456 37.336 25.0276 37.067 25.5597L33.874 32.1302C33.9595 33.0026 33.8817 33.8838 33.6448 34.7261H35.7536L30.1942 50.4604C30.1257 50.647 30.0939 50.8457 30.1006 51.0451C30.1073 51.2445 30.1525 51.4405 30.2334 51.6217C30.3143 51.803 30.4294 51.966 30.572 52.1012C30.7146 52.2363 30.8818 52.3411 31.064 52.4092C31.2463 52.4774 31.4398 52.5077 31.6335 52.4983C31.8272 52.489 32.0172 52.4402 32.1924 52.3547C32.3676 52.2693 32.5246 52.1489 32.6542 52.0005C32.7838 51.8522 32.8836 51.6789 32.9476 51.4906L38.8733 34.727H39.8997L45.8857 51.4959C46.0197 51.8712 46.2932 52.1763 46.6459 52.3442C46.9987 52.512 47.4018 52.5288 47.7666 52.3909C48.1313 52.253 48.4279 51.9717 48.5911 51.6088C48.7542 51.2459 48.7706 50.8312 48.6365 50.4559L43.0177 34.7261H50.3972C51.6179 34.7261 52.7887 34.2272 53.6519 33.3392C54.5151 32.4512 55 31.2468 55 29.9909V12.2353C55 10.9794 54.5151 9.77496 53.6519 8.88692C52.7887 7.99889 51.6179 7.5 50.3972 7.5ZM47.2577 28.27H40.6865C40.298 28.27 39.9253 28.1112 39.6506 27.8286C39.3758 27.5459 39.2215 27.1626 39.2215 26.7628C39.2215 26.3631 39.3758 25.9797 39.6506 25.6971C39.9253 25.4144 40.298 25.2556 40.6865 25.2556H47.2577C47.6462 25.2556 48.0189 25.4144 48.2936 25.6971C48.5684 25.9797 48.7227 26.3631 48.7227 26.7628C48.7227 27.1626 48.5684 27.5459 48.2936 27.8286C48.0189 28.1112 47.6462 28.27 47.2577 28.27ZM47.2577 22.6198H40.6865C40.298 22.6198 39.9253 22.461 39.6506 22.1784C39.3758 21.8957 39.2215 21.5124 39.2215 21.1126C39.2215 20.7129 39.3758 20.3295 39.6506 20.0469C39.9253 19.7642 40.298 19.6054 40.6865 19.6054H47.2577C47.6462 19.6054 48.0189 19.7642 48.2936 20.0469C48.5684 20.3295 48.7227 20.7129 48.7227 21.1126C48.7227 21.5124 48.5684 21.8957 48.2936 22.1784C48.0189 22.461 47.6462 22.6198 47.2577 22.6198ZM47.2577 16.9705H31.5731C31.1845 16.9705 30.8119 16.8117 30.5371 16.5291C30.2624 16.2464 30.108 15.863 30.108 15.4633C30.108 15.0636 30.2624 14.6802 30.5371 14.3976C30.8119 14.1149 31.1845 13.9561 31.5731 13.9561H47.2577C47.6462 13.9561 48.0189 14.1149 48.2936 14.3976C48.5684 14.6802 48.7227 15.0636 48.7227 15.4633C48.7227 15.863 48.5684 16.2464 48.2936 16.5291C48.0189 16.8117 47.6462 16.9705 47.2577 16.9705Z" fill="white"/>
</svg>
