<svg width="60" height="60" viewBox="0 0 60 60" fill="none" xmlns="http://www.w3.org/2000/svg">
<path d="M32.4899 13.0373H31.7858V12.0423C39.4289 11.0423 42.1238 8.42575 42.2379 8.31159L40.9805 7.04329C40.3123 7.5982 39.5641 8.04909 38.7614 8.38075C36.5656 9.3223 34.2463 9.9447 31.8741 10.229C31.969 9.65158 32.1452 9.09047 32.3974 8.56241C34.1617 8.58431 35.9123 8.25163 37.5456 7.58411L36.7514 5.985C35.8013 6.36608 34.7988 6.60042 33.7782 6.67997C34.9325 5.59974 36.4546 4.99914 38.0356 5.00003H41.3963C41.7982 4.99803 42.1937 5.10033 42.5443 5.29692C42.8948 5.49352 43.1884 5.77768 43.3962 6.12166V9.87153C40.1372 11.9422 36.3553 13.0407 32.4941 13.0381L32.4899 13.0373ZM27.3209 51.4285V48.7502C27.3209 48.5135 27.415 48.2865 27.5823 48.1192C27.7497 47.9518 27.9767 47.8578 28.2134 47.8578H29.0375L29.7517 46.072H24.5327L23.8185 47.8578H24.6427C24.8794 47.8578 25.1064 47.9518 25.2738 48.1192C25.4411 48.2865 25.5351 48.5135 25.5351 48.7502V51.4285H27.3209ZM5.00083 42.5004V26.4293C5.00127 25.9558 5.18956 25.5019 5.52436 25.1671C5.85916 24.8323 6.31313 24.644 6.78661 24.6435H31.7858C32.2591 24.6442 32.7129 24.8326 33.0475 25.1674C33.3821 25.5021 33.5703 25.956 33.5707 26.4293V42.5004C33.5703 42.9739 33.382 43.4279 33.0472 43.7627C32.7124 44.0975 32.2584 44.2858 31.7849 44.2862H21.9211L22.8377 40.0089C22.8657 39.8787 22.8642 39.7438 22.8333 39.6143C22.8024 39.4847 22.7429 39.3638 22.6592 39.2602C22.5754 39.1566 22.4696 39.0731 22.3493 39.0158C22.2291 38.9585 22.0976 38.9288 21.9644 38.9289H15.7146C15.5399 38.9288 15.369 38.98 15.2231 39.0761C15.0772 39.1723 14.9627 39.3091 14.8938 39.4697L12.8297 44.2854H6.78661C6.31327 44.2849 5.85943 44.0968 5.52466 43.7621C5.18988 43.4275 5.0015 42.9738 5.00083 42.5004ZM28.2142 29.1076H31.7858V27.3218H28.2142V29.1076ZM22.8569 29.1076H26.4285V27.3218H22.8569V29.1076ZM17.4996 29.1076H21.0711V27.3218H17.5004L17.4996 29.1076ZM12.1423 29.1076H15.7138V27.3218H12.1431L12.1423 29.1076ZM6.78494 29.1076H10.3565V27.3218H6.78661L6.78494 29.1076ZM31.7891 19.9412C31.7891 19.872 31.7841 19.8029 31.7841 19.7329V16.8463C31.6488 16.924 31.5241 17.019 31.4133 17.1288C31.2194 17.3227 31.0729 17.5586 30.985 17.8183C30.8972 18.078 30.8704 18.3545 30.9067 18.6262C30.9431 18.898 31.0416 19.1577 31.1946 19.3852C31.3477 19.6126 31.5511 19.8018 31.7891 19.9379V19.9412ZM45.1778 6.87663V10.359C45.1769 11.2118 45.4448 12.0433 45.9434 12.7351C46.442 13.427 47.1459 13.9441 47.9552 14.2131L48.7485 14.4772V11.2515C48.7472 10.2229 48.3914 9.22612 47.741 8.42923C47.0906 7.63234 46.1853 7.08401 45.1778 6.87663ZM50.5351 19.7337C50.5351 19.8037 50.5351 19.8729 50.5301 19.942C50.6674 19.8636 50.7937 19.7675 50.906 19.6562C51.0994 19.4627 51.2457 19.2273 51.3336 18.9681C51.4214 18.709 51.4485 18.4331 51.4126 18.1619C51.3768 17.8906 51.279 17.6312 51.1268 17.4038C50.9747 17.1764 50.7722 16.9871 50.5351 16.8505V19.7337ZM33.5715 19.7337V14.7955C37.0968 14.6275 40.5302 13.6161 43.5837 11.8465C43.83 12.7868 44.3071 13.6508 44.9718 14.36C45.6366 15.0693 46.4678 15.6014 47.3903 15.908L48.7485 16.3605V19.7345C48.7485 21.7472 47.949 23.6775 46.5258 25.1007C45.1026 26.5239 43.1723 27.3235 41.1596 27.3235C39.1469 27.3235 37.2167 26.5239 35.7935 25.1007C34.3703 23.6775 33.5707 21.7472 33.5707 19.7345L33.5715 19.7337ZM42.4996 17.5013C42.4996 17.8545 42.6043 18.1997 42.8005 18.4934C42.9968 18.7871 43.2757 19.016 43.602 19.1511C43.9283 19.2863 44.2873 19.3216 44.6337 19.2527C44.9802 19.1838 45.2983 19.0138 45.5481 18.764C45.7978 18.5143 45.9679 18.1961 46.0368 17.8497C46.1057 17.5033 46.0704 17.1442 45.9352 16.8179C45.8 16.4916 45.5711 16.2127 45.2775 16.0165C44.9838 15.8202 44.6385 15.7155 44.2854 15.7155C43.8117 15.7155 43.3575 15.9036 43.0226 16.2385C42.6877 16.5734 42.4996 17.0277 42.4996 17.5013ZM38.5222 20.4253L37.5481 21.9253C38.4905 22.5382 39.5905 22.8644 40.7146 22.8644C41.8388 22.8644 42.9388 22.5382 43.8812 21.9253L42.9071 20.4253C42.2548 20.8494 41.4935 21.0751 40.7155 21.0751C39.9375 21.0751 39.1762 20.8494 38.5239 20.4253H38.5222ZM35.3557 17.5013C35.3557 17.8545 35.4604 18.1997 35.6566 18.4934C35.8528 18.7871 36.1317 19.016 36.458 19.1511C36.7843 19.2863 37.1434 19.3216 37.4898 19.2527C37.8362 19.1838 38.1544 19.0138 38.4042 18.764C38.6539 18.5143 38.824 18.1961 38.8929 17.8497C38.9618 17.5033 38.9264 17.1442 38.7913 16.8179C38.6561 16.4916 38.4272 16.2127 38.1336 16.0165C37.8399 15.8202 37.4946 15.7155 37.1414 15.7155C36.6678 15.7155 36.2136 15.9036 35.8787 16.2385C35.5438 16.5734 35.3557 17.0277 35.3557 17.5013ZM41.1588 29.1084C40.3824 29.1087 39.609 29.0124 38.8564 28.8217C38.7714 29.184 38.6121 29.5247 38.3887 29.8222C38.1652 30.1197 37.8823 30.3675 37.5581 30.55C37.9705 31.1823 38.5294 31.7057 39.1872 32.076C39.8451 32.4463 40.5825 32.6524 41.337 32.677C42.0915 32.7015 42.8408 32.5437 43.5213 32.2169C44.2018 31.8902 44.7935 31.4041 45.2462 30.8L45.5003 30.4608C45.3445 30.3594 45.1996 30.2421 45.0678 30.1109C44.6494 29.6934 44.3815 29.1488 44.3062 28.5626C43.2967 28.9236 42.2326 29.1079 41.1605 29.1076L41.1588 29.1084ZM16.303 40.7147L11.7114 51.4285H18.5637L20.8595 40.7147H16.303ZM31.7849 46.072H31.6783L30.9641 47.8578H32.6782V45.9587C32.3867 46.0337 32.0868 46.0715 31.7858 46.0712L31.7849 46.072ZM23.7494 49.6435H20.7728L20.3903 51.4285H23.7494V49.6435ZM54.9983 53.2151H5V55.0009H54.9983V53.2151ZM54.9983 46.0728V39.823H50.5351V46.0728C50.5351 46.3095 50.4411 46.5365 50.2738 46.7039C50.1064 46.8713 49.8794 46.9653 49.6427 46.9653H38.0356C37.3255 46.9662 36.6448 47.2486 36.1427 47.7507C35.6407 48.2528 35.3582 48.9335 35.3573 49.6435V51.4285H49.6418C51.0622 51.4269 52.424 50.862 53.4283 49.8577C54.4327 48.8533 54.9976 47.4915 54.9992 46.0712L54.9983 46.0728ZM21.5378 46.0728L21.1553 47.8586H21.8953L22.6094 46.0728H21.5378ZM33.5707 49.6444H29.1067V51.4285H33.5707V49.6444ZM34.4632 46.9686V44.8579C35.0388 44.2072 35.3562 43.3683 35.3557 42.4996V30.8933H35.6973C36.1929 31.8801 36.9324 32.7239 37.8456 33.3447C38.7587 33.9656 39.8154 34.3428 40.9153 34.4407C42.0151 34.5386 43.1218 34.354 44.1303 33.9042C45.1388 33.4544 46.0157 32.7545 46.6778 31.8708L47.4111 30.8933H50.536C51.7195 30.8947 52.8542 31.3654 53.6911 32.2023C54.5279 33.0392 54.9987 34.1738 55 35.3573V38.0356H50.5351V35.3573H48.7494V45.1787H38.0356C37.3424 45.1788 36.6587 45.3404 36.0389 45.6508C35.419 45.9613 34.8801 46.4119 34.4649 46.967L34.4632 46.9686ZM36.6956 36.719C38.0841 37.5205 39.6477 37.9699 41.2499 38.028C42.852 38.0862 44.4441 37.7511 45.887 37.0523L45.1087 35.4448C43.928 36.0166 42.6253 36.2906 41.3144 36.243C40.0034 36.1954 38.7241 35.8275 37.5881 35.1715L36.6956 36.719Z" fill="white"/>
</svg>
